# xmcd
#
# Track frame offsets:
#	150
#	16906
#	29237
#	44832
#	62075
#	78055
#	92266
#	108809
#	122794
#	137720
#	154037
#	189164
#	203098
#	219062
#	235390
#	252641
#	270169
#	287334
#	303667
#	320780
#
# Disc length: 4496 seconds
# Revision: 0
# Processed by: cddbd v1.5.2PL0 Copyright (c) Steve Scherf et al.
# Submitted via: dBpowerAMP V12.0
#
DISCID=11118e14
DTITLE=Various Artist - Viva Club Rotation Vol.16
DYEAR=2001
DGENRE=Dance
TTITLE0=Lasgo - Something
TTITLE1=Sylver - Forever In Love
TTITLE2=Perpetouos Dreamer - The Sound Of Goodbye
TTITLE3=Mackenzie - All I Need
TTITLE4=Airplay - The Music Is Moving
TTITLE5=Coast 2 Coast - Home
TTITLE6=Rank 1 - Such Is Life
TTITLE7=Orinoko - Island
TTITLE8=Dreamcatcher - I Don't Wanna Loose My Way
TTITLE9=Kay Cee - I Feel You
TTITLE10=Marc and Claude - Tremble
TTITLE11=Safri Duo - Samb - Adagio
TTITLE12=DJs@Work - Someday
TTITLE13=Darude - Out Of Control (Back For More)
TTITLE14=Blank and Jones - Nightclubbing
TTITLE15=Kai Tracid - Too Many Times
TTITLE16=Klubbingman - Welcome To The Club
TTITLE17=Escanor - Are U Ready
TTITLE18=Ratty - Living On Video
TTITLE19=Push - The Legacy
EXTD=
EXTT0=
EXTT1=
EXTT2=
EXTT3=
EXTT4=
EXTT5=
EXTT6=
EXTT7=
EXTT8=
EXTT9=
EXTT10=
EXTT11=
EXTT12=
EXTT13=
EXTT14=
EXTT15=
EXTT16=
EXTT17=
EXTT18=
EXTT19=
PLAYORDER=
